<?xml version="1.0" standalone="no"?>
<!DOCTYPE svg PUBLIC "-//W3C//DTD SVG 20010904//EN"
 "http://www.w3.org/TR/2001/REC-SVG-20010904/DTD/svg10.dtd">
<svg version="1.0" xmlns="http://www.w3.org/2000/svg"
 width="96.000000pt" height="96.000000pt" viewBox="0 0 96.000000 96.000000"
 preserveAspectRatio="xMidYMid meet">
<metadata>
Created by potrace 1.14, written by Peter Selinger 2001-2017
</metadata>
<g transform="translate(0.000000,96.000000) scale(0.100000,-0.100000)"
fill="#000000" stroke="none">
<path d="M134 822 c-48 -7 -59 -35 -59 -160 0 -109 -2 -118 -22 -135 -29 -24
-29 -62 -1 -90 21 -21 23 -32 23 -140 1 -176 -34 -162 402 -163 440 -1 408
-14 408 158 0 103 3 117 23 142 28 36 28 63 0 93 -20 21 -22 35 -23 138 -2
174 31 160 -388 160 -188 0 -352 -1 -363 -3z m708 -40 c7 -7 12 -55 12 -124 1
-104 -1 -114 -21 -135 -29 -28 -29 -67 -2 -87 19 -13 22 -25 23 -125 1 -76 -3
-116 -12 -128 -12 -17 -40 -18 -363 -17 -245 0 -353 4 -361 12 -7 7 -11 55
-12 124 -1 106 0 114 22 131 28 23 28 56 1 92 -18 22 -22 41 -23 113 -2 117 4
145 32 152 47 11 692 4 704 -8z"/>
<path d="M316 671 c-1 -3 -2 -24 -2 -46 l1 -40 52 -1 c29 0 56 -4 60 -7 4 -4
7 -71 7 -150 l1 -142 45 0 45 0 0 148 c0 81 3 147 7 148 5 1 32 2 61 2 l52 2
0 45 0 45 -163 1 c-89 1 -164 -2 -166 -5z"/>
</g>
</svg>
